Coordinates
version=1
nRows=24
nColumns=38
inDegrees=no

Units are S.I. units (second, meters, Newtons, ...)
If the header above contains a line with 'inDegrees', this indicates whether rotational values are in degrees (yes) or radians (no).

endheader
time	pelvis_tilt	pelvis_list	pelvis_rotation	pelvis_tx	pelvis_ty	pelvis_tz	hip_flexion_r	hip_adduction_r	hip_rotation_r	knee_angle_r	ankle_angle_r	subtalar_angle_r	mtp_angle_r	hip_flexion_l	hip_adduction_l	hip_rotation_l	knee_angle_l	ankle_angle_l	subtalar_angle_l	mtp_angle_l	lumbar_extension	lumbar_bending	lumbar_rotation	arm_flex_r	arm_add_r	arm_rot_r	elbow_flex_r	pro_sup_r	wrist_flex_r	wrist_dev_r	arm_flex_l	arm_add_l	arm_rot_l	elbow_flex_l	pro_sup_l	wrist_flex_l	wrist_dev_l
1.65	-1.93	1.45278	-2.77911	0.668278	1.52018	0.935056	0.0367222	-0.306572	-0.171412	1.12276	-0.271697	0	0	0.353067	0.11538	-0.22204	0.507666	0.0975625	0	0	-0.028443	-0.117613	-0.00273938	-0.055923	-0.136415	0.108432	0.439989	1.13972	0	0	-0.304189	-0.259521	0.445892	0.679659	0.684089	0	0
1.66	-1.95739	1.44528	-2.74803	0.666509	1.53062	0.936714	0.0578454	-0.3169	-0.161878	1.16224	-0.305599	0	0	0.328961	0.12679	-0.218136	0.498648	0.103056	0	0	-0.033764	-0.125473	-0.00826002	-0.058785	-0.134951	0.114155	0.437547	1.13207	0	0	-0.296719	-0.264545	0.441033	0.682684	0.68716	0	0
1.67	-1.99067	1.439	-2.71108	0.664822	1.54093	0.938505	0.0780706	-0.324262	-0.152135	1.20051	-0.313043	0	0	0.304163	0.136239	-0.212869	0.489256	0.108227	0	0	-0.0399076	-0.131371	-0.0138826	-0.0615342	-0.134241	0.119489	0.435408	1.13106	0	0	-0.288002	-0.269421	0.438639	0.684783	0.689546	0	0
1.68	-2.02695	1.43442	-2.66996	0.663101	1.55103	0.940379	0.0973209	-0.328462	-0.144208	1.23567	-0.298794	0	0	0.279508	0.143464	-0.205889	0.479542	0.11257	0	0	-0.0465761	-0.134802	-0.0204711	-0.0647815	-0.13388	0.122337	0.434903	1.13455	0	0	-0.277653	-0.273788	0.438301	0.684935	0.692728	0	0
1.69	-2.06407	1.42935	-2.62667	0.661321	1.56102	0.942494	0.114118	-0.332353	-0.139211	1.26542	-0.273963	0	0	0.250019	0.152472	-0.192869	0.46098	0.113743	0	0	-0.054263	-0.138202	-0.0283238	-0.0684794	-0.132739	0.12283	0.43546	1.13578	0	0	-0.266	-0.277771	0.438457	0.684198	0.695477	0	0
1.7	-2.10204	1.43063	-2.5813	0.65955	1.57093	0.94426	0.132826	-0.328233	-0.136388	1.29013	-0.247491	0	0	0.231299	0.150682	-0.189887	0.458571	0.120969	0	0	-0.0583413	-0.134915	-0.0367897	-0.0740781	-0.132947	0.123257	0.438623	1.13555	0	0	-0.254219	-0.281104	0.440074	0.683656	0.697545	0	0
1.71	-2.15114	1.42955	-2.52647	0.657895	1.58071	0.946395	0.148859	-0.324442	-0.13256	1.30915	-0.224787	0	0	0.205309	0.150957	-0.184995	0.446238	0.125521	0	0	-0.0653954	-0.132541	-0.0435972	-0.0793406	-0.132967	0.121264	0.442224	1.13754	0	0	-0.24095	-0.284177	0.441648	0.682751	0.700495	0	0
1.72	-2.19609	1.42923	-2.47602	0.65627	1.59029	0.948482	0.165958	-0.319445	-0.128974	1.32358	-0.206214	0	0	0.180333	0.150253	-0.180854	0.433111	0.129529	0	0	-0.0715253	-0.129312	-0.0496958	-0.0847321	-0.132808	0.116088	0.445765	1.14349	0	0	-0.226206	-0.285782	0.442715	0.679325	0.704814	0	0
1.73	-2.24087	1.41845	-2.42864	0.654754	1.59997	0.951542	0.175425	-0.323778	-0.123421	1.33157	-0.190934	0	0	0.126637	0.166987	-0.150241	0.375522	0.116722	0	0	-0.0850994	-0.134716	-0.0536426	-0.0882578	-0.130765	0.10901	0.446863	1.15026	0	0	-0.210431	-0.288791	0.444802	0.677291	0.708101	0	0
1.74	-2.27883	1.42912	-2.38129	0.65307	1.6092	0.952449	0.199671	-0.308547	-0.125278	1.33894	-0.176401	0	0	0.131024	0.147695	-0.172696	0.403942	0.135225	0	0	-0.0823499	-0.122299	-0.0629768	-0.0950339	-0.132396	0.107429	0.45193	1.15114	0	0	-0.197221	-0.28964	0.4463	0.676319	0.709284	0	0
1.75	-2.31473	1.43073	-2.33795	0.651363	1.61854	0.954132	0.217037	-0.302505	-0.126477	1.34037	-0.163626	0	0	0.10968	0.144934	-0.167325	0.391574	0.138828	0	0	-0.0856679	-0.11749	-0.0705814	-0.100981	-0.132723	0.103899	0.45621	1.1518	0	0	-0.182594	-0.290818	0.448355	0.673625	0.712504	0	0
1.76	-2.3595	1.43038	-2.28694	0.649764	1.62782	0.955859	0.231654	-0.297041	-0.127884	1.33782	-0.151753	0	0	0.085012	0.14233	-0.162897	0.376641	0.141574	0	0	-0.091483	-0.113104	-0.0772722	-0.105911	-0.133035	0.100093	0.45951	1.15277	0	0	-0.168365	-0.292678	0.451284	0.675017	0.708669	0	0
1.77	-2.40002	1.43021	-2.24099	0.648243	1.63691	0.957354	0.247222	-0.291756	-0.129175	1.33244	-0.139754	0	0	0.0617821	0.139528	-0.159089	0.362218	0.144423	0	0	-0.0968714	-0.108808	-0.0831887	-0.110205	-0.133501	0.0968029	0.462383	1.15332	0	0	-0.154192	-0.294311	0.452343	0.678066	0.704884	0	0
1.78	-2.44404	1.42983	-2.19019	0.646687	1.6459	0.958756	0.260615	-0.286567	-0.13351	1.32317	-0.12701	0	0	0.0385327	0.136041	-0.153343	0.348102	0.147496	0	0	-0.102884	-0.103918	-0.0906006	-0.113763	-0.133477	0.0922392	0.463883	1.15594	0	0	-0.139733	-0.295753	0.45226	0.680677	0.705281	0	0
1.79	-2.49732	1.42902	-2.12932	0.645134	1.65496	0.960122	0.270834	-0.280404	-0.140197	1.30968	-0.113445	0	0	0.0151676	0.130601	-0.14788	0.33586	0.152004	0	0	-0.109688	-0.0977083	-0.0990722	-0.116784	-0.133423	0.0883558	0.464393	1.15807	0	0	-0.12555	-0.296361	0.450544	0.682212	0.70846	0	0
1.8	-2.54568	1.42781	-2.07396	0.643604	1.66389	0.961297	0.281101	-0.275401	-0.147418	1.29384	-0.0993787	0	0	-0.00785005	0.125565	-0.141966	0.323138	0.156373	0	0	-0.116375	-0.0918726	-0.107172	-0.119042	-0.133434	0.0848657	0.464187	1.15991	0	0	-0.111708	-0.296029	0.445932	0.683655	0.714646	0	0
1.81	-2.58888	1.4264	-2.02374	0.642089	1.67269	0.962273	0.291204	-0.271421	-0.155501	1.27562	-0.0852341	0	0	-0.0295894	0.120609	-0.136598	0.311673	0.16095	0	0	-0.12295	-0.0864146	-0.115219	-0.120853	-0.133332	0.0817943	0.463778	1.15974	0	0	-0.0977227	-0.295973	0.441695	0.686347	0.721184	0	0
1.82	-2.62877	1.42467	-1.97666	0.640642	1.68136	0.963098	0.300413	-0.268049	-0.164605	1.25446	-0.0704189	0	0	-0.0503623	0.115554	-0.131949	0.301468	0.165654	0	0	-0.129841	-0.081424	-0.123615	-0.121808	-0.132963	0.0781715	0.462611	1.16133	0	0	-0.0841066	-0.296546	0.437003	0.691954	0.725873	0	0
1.83	-2.66628	1.4224	-1.93281	0.639282	1.68997	0.963824	0.30828	-0.264811	-0.173786	1.23011	-0.0552133	0	0	-0.071221	0.110754	-0.127448	0.291055	0.16979	0	0	-0.137021	-0.0767179	-0.131332	-0.122026	-0.13268	0.0760319	0.460236	1.16372	0	0	-0.0707201	-0.297398	0.433715	0.699207	0.726683	0	0
1.84	-2.69947	1.42073	-1.8951	0.638094	1.69863	0.964352	0.316361	-0.261158	-0.182146	1.20285	-0.0403518	0	0	-0.0908728	0.106176	-0.123453	0.280853	0.173974	0	0	-0.142835	-0.0721426	-0.137296	-0.122093	-0.132309	0.0747776	0.456797	1.16469	0	0	-0.0575855	-0.297981	0.433266	0.703953	0.726138	0	0
1.85	-2.73331	1.41843	-1.85731	0.637024	1.70729	0.964811	0.322416	-0.257351	-0.191378	1.17236	-0.0265481	0	0	-0.111308	0.101438	-0.119291	0.270018	0.178081	0	0	-0.149227	-0.0674559	-0.142441	-0.12202	-0.131729	0.0729946	0.453443	1.16465	0	0	-0.0434459	-0.297541	0.430318	0.705567	0.7335	0	0
1.86	-2.76413	1.41646	-1.82289	0.636029	1.71589	0.965115	0.327989	-0.253634	-0.201306	1.13923	-0.0139899	0	0	-0.130503	0.0966518	-0.116355	0.260012	0.182454	0	0	-0.155016	-0.0629467	-0.14739	-0.121593	-0.131385	0.0715385	0.44993	1.16582	0	0	-0.0299585	-0.297485	0.428481	0.706924	0.745868	0	0
1.87	-2.78995	1.41502	-1.79423	0.635138	1.7245	0.965231	0.333562	-0.250279	-0.21168	1.10406	-0.00299201	0	0	-0.148499	0.0923567	-0.114045	0.250429	0.186779	0	0	-0.159675	-0.0590738	-0.151506	-0.121264	-0.131251	0.0721275	0.446161	1.1661	0	0	-0.0170153	-0.296618	0.424939	0.709045	0.758238	0	0
1.88	-2.81349	1.41387	-1.76819	0.634283	1.73309	0.965193	0.338497	-0.247124	-0.22303	1.06685	0.00636211	0	0	-0.165713	0.0882741	-0.111611	0.241283	0.191165	0	0	-0.163668	-0.0554302	-0.155339	-0.120967	-0.131125	0.0743447	0.442373	1.16348	0	0	-0.00448681	-0.29563	0.421293	0.711546	0.770417	0	0
